:SAMPLES-PER-SECOND 30
:FULLY-SPECIFIED
:DEGREES
221
root  35.0817793 36.48481895 -14.89730745 11.07503986 7.64387846 4.294620991
lowerback  -8.41574955 2.090169907 1.318420172
upperback  -4.226220131 2.294310093 -4.482150078
thorax  0.5739009976 0.8988909721 -5.194489956
lowerneck  -15.71780014 -3.695590019 -0.2332289964
upperneck  12.85439968 -6.276949883 6.650090218
head  6.739850044 -2.566220045 1.515349984
lclavicle  0 -4.497500157e-015 -2.743230041e-014
lhumerus  -44.2989006 26.42830086 67.68710327
lradius  -0.1161856651 -6.507048965e-006 27.06959915
lwrist  4.824992743e-007 -3.790274832e-007 -32.06219864
lhand  -0 -37.25329971 -10.63650036
lfingers  90 7.125020027 -90
lthumb  94.97321377 -25.46036688 101.4431855
rclavicle  0 -4.497500157e-015 -2.743230041e-014
rhumerus  24.94239998 -6.033460617 -49.41139984
rradius  -5.16745672e-007 2.214343908e-008 89.36460114
rwrist  1.380293725e-006 2.528095422e-007 179.6679993
rhand  -1.770786731e-031 4.402219772 -7.467299938
rfingers  -90 -7.125020027 -90
rthumb  -85.03814071 -8.588304392 -59.8275929
rfemur  -14.37232208 11.65603638 13.70256519
rtibia  -2.469312668 1.116785645 23.64189529
rfoot  -2.282946825 -17.10471725 -42.47231674
rtoes  3.836736516 19.64334348 -101.2822547
lfemur  -12.5615797 -22.17296791 -18.76755905
ltibia  2.571332932 1.355086207 16.12389374
lfoot  1.107284904 -28.39541245 32.69174957
ltoes  -8.663999644 -18.09561957 -116.1320223
222
root  35.08480102 36.48375263 -14.89906311 11.03588295 7.48157692 4.255166054
lowerback  -8.437749863 2.010070086 1.182950258
upperback  -4.185679913 2.200489998 -4.440090179
thorax  0.6120759845 0.8560609818 -5.080639839
lowerneck  -15.81499958 -3.591039896 -0.1269599944
upperneck  12.88589954 -6.153110027 6.594520092
head  6.757070065 -2.502680063 1.49217999
lclavicle  0 -4.497500157e-015 -2.743230041e-014
lhumerus  -44.23500061 26.35289955 67.79699707
lradius  -0.1161675975 -6.507048965e-006 27.14210129
lwrist  4.824992743e-007 -3.790274832e-007 -31.75729942
lhand  -0 -37.23020172 -10.63659954
lfingers  90 7.125020027 -90
lthumb  94.96241608 -25.46131841 101.4184844
rclavicle  0 -4.497500157e-015 -2.743230041e-014
rhumerus  23.38699913 -5.82708931 -49.71680069
rradius  -5.16745672e-007 2.214343908e-008 90.81680298
rwrist  1.380293725e-006 2.528095422e-007 179.2960052
rhand  -1.770724771e-031 4.376100063 -7.50936985
rfingers  -90 -7.125020027 -90
rthumb  -85.06550427 -8.550245295 -59.8562009
rfemur  -14.3426199 11.68138695 13.69939995
rtibia  -2.426690102 1.096143365 23.5895195
rfoot  -2.237812042 -17.19808006 -42.35000992
rtoes  3.83755572 19.64318954 -101.2846916
lfemur  -12.4965744 -22.10253906 -18.75281525
ltibia  2.558641911 1.373050809 16.0938282
lfoot  1.131979227 -28.42842865 32.85235977
ltoes  -8.65149572 -18.10144517 -116.0917717
223
root  35.08833938 36.48346127 -14.90159222 10.99465942 7.307039738 4.207620144
lowerback  -8.466468811 1.970510006 1.071099877
upperback  -4.144869804 2.159909964 -4.402490139
thorax  0.6608380079 0.8399209976 -4.97988987
lowerneck  -15.85960007 -3.52677989 -0.1523800045
upperneck  12.85760021 -6.059700489 6.611229897
head  6.753479958 -2.456510067 1.511299968
lclavicle  0 -4.497500157e-015 -2.743230041e-014
lhumerus  -44.12889862 26.20590019 67.99279785
lradius  -0.1161473766 -6.507048965e-006 27.19670105
lwrist  4.824992743e-007 -3.790274832e-007 -31.46260071
lhand  -4.433634775e-031 -37.20849991 -10.68550014
lfingers  90 7.125020027 -90
lthumb  94.96296558 -25.50998002 101.3999255
rclavicle  0 -4.497500157e-015 -2.743230041e-014
rhumerus  21.74170113 -5.661110401 -50.10649872
rradius  -5.16745672e-007 2.214343908e-008 92.26249695
rwrist  1.380293725e-006 2.528095422e-007 179.2030029
rhand  -1.770893344e-031 4.446800232 -7.493040085
rfingers  -90 -7.125020027 -90
rthumb  -85.04094474 -8.56897586 -59.7860468
rfemur  -14.32567787 11.78092194 13.69712925
rtibia  -2.383054733 1.119908333 23.55258369
rfoot  -2.203732729 -17.21532059 -42.2844696
rtoes  3.84485621 19.6418162 -101.3064096
lfemur  -12.44301796 -21.96689606 -18.73246384
ltibia  2.530867577 1.391636014 16.08793259
lfoot  1.140189886 -28.47621536 32.95093155
ltoes  -8.647520468 -18.10329503 -116.0789779
224
root  35.08918642 36.48359043 -14.90451182 10.93356895 7.134292603 4.177456379
lowerback  -8.509269714 1.965019941 1.049679518
upperback  -4.117350101 2.157030106 -4.385900021
thorax  0.711310029 0.8406919837 -4.949180126
lowerneck  -15.86900043 -3.489000082 -0.1856040061
upperneck  12.81099987 -5.995200634 6.613299847
head  6.738639832 -2.426929951 1.524489999
lclavicle  0 -4.497500157e-015 -2.743230041e-014
lhumerus  -44.08940125 26.21579933 68.05370331
lradius  -0.1161250249 -6.507048965e-006 27.22859955
lwrist  4.824992743e-007 -3.790274832e-007 -31.6053009
lhand  -4.434481161e-031 -37.22290039 -10.67010021
lfingers  90 7.125020027 -90
lthumb  94.9663501 -25.49436754 101.4138811
rclavicle  0 -4.497500157e-015 -2.743230041e-014
rhumerus  20.0284996 -5.490049839 -50.38990021
rradius  -5.16745672e-007 2.214343908e-008 93.70220184
rwrist  1.380293725e-006 2.528095422e-007 179.223999
rhand  -1.77083316e-031 4.421689987 -7.504950047
rfingers  -90 -7.125020027 -90
rthumb  -85.0527867 -8.5570461 -59.81145403
rfemur  -14.28757668 11.86951447 13.69564915
rtibia  -2.351673126 1.129140854 23.52519035
rfoot  -2.162645578 -17.24222755 -42.19051361
rtoes  3.84695699 19.64142051 -101.3126594
lfemur  -12.37651443 -21.89513969 -18.73859787
ltibia  2.502703905 1.356220722 16.09577179
lfoot  1.123083711 -28.42527771 33.02081299
ltoes  -8.671783709 -18.09198763 -116.1570858
225
root  35.08837242 36.48476488 -14.9073383 10.87313747 6.980518341 4.149564266
lowerback  -8.531590462 1.957360148 1.054380894
upperback  -4.101469994 2.14763999 -4.383399963
thorax  0.7392770052 0.8367649913 -4.949440002
lowerneck  -15.8423996 -3.453900099 -0.1902980059
upperneck  12.72169971 -5.935740471 6.60653019
head  6.702990055 -2.401249886 1.530340075
lclavicle  0 -4.497500157e-015 -2.743230041e-014
lhumerus  -44.06389999 26.15600014 68.15239716
lradius  -0.1161005422 -6.507048965e-006 27.33910179
lwrist  4.824992743e-007 -3.790274832e-007 -31.36000061
lhand  -4.430770962e-031 -37.15969849 -10.68480015
lfingers  90 7.125020027 -90
lthumb  94.93991806 -25.51110583 101.34765
rclavicle  0 -4.497500157e-015 -2.743230041e-014
rhumerus  18.19120026 -5.159609318 -50.51580048
rradius  -5.16745672e-007 2.214343908e-008 95.32119751
rwrist  1.380293725e-006 2.528095422e-007 179.7180023
rhand  -1.770769164e-031 4.394830227 -7.431000233
rfingers  -90 -7.125020027 -90
rthumb  -85.02135534 -8.61925524 -59.83197697
rfemur  -14.22123528 11.91695976 13.69564533
rtibia  -2.318364143 1.097915173 23.45822716
rfoot  -2.128458738 -17.33531761 -42.13061905
rtoes  3.832712048 19.64409921 -101.2702832
lfemur  -12.32151127 -21.85788727 -18.73652458
ltibia  2.47449851 1.316222787 16.12113571
lfoot  1.120714307 -28.37209702 33.1103096
ltoes  -8.681632681 -18.08738637 -116.188805
